<svg width="45" height="45" viewBox="0 0 45 45" fill="none" xmlns="http://www.w3.org/2000/svg">
<path d="M22.2865 0C10.0067 0 0 10.0067 0 22.2865C0 34.5664 10.0067 44.5731 22.2865 44.5731C34.5664 44.5731 44.5731 34.5664 44.5731 22.2865C44.5731 10.0067 34.5664 0 22.2865 0ZM26.2758 28.9725C26.9221 29.6188 26.9221 30.6886 26.2758 31.3349C25.9415 31.6692 25.5181 31.8252 25.0946 31.8252C24.6712 31.8252 24.2477 31.6692 23.9135 31.3349L16.0463 23.4677C15.4 22.8214 15.4 21.7517 16.0463 21.1053L23.9135 13.2382C24.5598 12.5919 25.6295 12.5919 26.2758 13.2382C26.9221 13.8845 26.9221 14.9543 26.2758 15.6006L19.5899 22.2865L26.2758 28.9725Z" fill="#2D2D2B"/>
</svg>
