<svg width="45" height="45" viewBox="0 0 45 45" fill="none" xmlns="http://www.w3.org/2000/svg">
<path d="M22.2867 0C34.5666 0 44.5732 10.0067 44.5732 22.2865C44.5732 34.5664 34.5666 44.5731 22.2867 44.5731C10.0068 44.5731 0.000173569 34.5664 0.000173569 22.2865C0.000173569 10.0067 10.0068 0 22.2867 0ZM18.2974 28.9725C17.6511 29.6188 17.6511 30.6886 18.2974 31.3349C18.6317 31.6692 19.0552 31.8252 19.4786 31.8252C19.902 31.8252 20.3255 31.6692 20.6598 31.3349L28.5269 23.4677C29.1732 22.8214 29.1732 21.7517 28.5269 21.1053L20.6598 13.2382C20.0135 12.5919 18.9437 12.5919 18.2974 13.2382C17.6511 13.8845 17.6511 14.9543 18.2974 15.6006L24.9834 22.2865L18.2974 28.9725Z" fill="#2D2D2B"/>
</svg>
