<svg width="48" height="58" viewBox="0 0 48 58" fill="none" xmlns="http://www.w3.org/2000/svg">
<path d="M42.5999 6.39718L26.9694 0.454365C25.3496 -0.151455 22.7066 -0.151455 21.0867 0.454365L5.45644 6.39718C2.44403 7.55112 0 11.1283 0 14.3882V37.7555C0 40.0922 1.5062 43.179 3.35344 44.5638L18.9837 56.4205C21.7404 58.5265 26.259 58.5265 29.0156 56.4205L44.646 44.5638C46.4933 43.1502 47.9998 40.0922 47.9998 37.7555V14.3882C48.0282 11.1283 45.5839 7.55112 42.5999 6.39718ZM33.9037 22.5524L21.6835 34.9572C21.2572 35.3899 20.7173 35.5918 20.1773 35.5918C19.6374 35.5918 19.0974 35.3899 18.6711 34.9572L14.1242 30.2837C13.3001 29.4471 13.3001 28.0624 14.1242 27.2258C14.9484 26.3891 16.3125 26.3891 17.1366 27.2258L20.2057 30.3414L30.9197 19.4656C31.7438 18.629 33.1079 18.629 33.9321 19.4656C34.7562 20.3022 34.7562 21.7158 33.9037 22.5524Z" fill="white"/>
</svg>
