<svg width="48" height="58" viewBox="0 0 48 58" fill="none" xmlns="http://www.w3.org/2000/svg">
<path d="M37.5998 15.6888L7.14081 45.5003C5.71861 46.8923 3.28901 46.5733 2.42976 44.8043C0.889037 41.7014 0.000158319 38.1924 0.000158319 34.5095C-0.0591002 18.5017 16.5333 4.81393 22.163 0.608991C23.2593 -0.202997 24.7407 -0.202997 25.8074 0.608991C28.3851 2.52296 33.2147 6.4959 37.748 11.7158C38.7554 12.8758 38.6961 14.6158 37.5998 15.6888Z" fill="white"/>
<path d="M48.0001 34.5394C48.0001 47.4732 37.2446 58 24.0003 58C18.6967 58 13.7485 56.3181 9.74854 53.4181C8.2967 52.3741 8.17818 50.2862 9.45224 49.0392L39.289 19.8365C40.6816 18.4735 43.0223 18.7635 43.9705 20.4455C46.4001 24.8245 48.0297 29.5805 48.0001 34.5394Z" fill="white"/>
</svg>
