<svg preserveAspectRatio="none" width="100%" height="100%" overflow="visible" style="display: block;" viewBox="0 0 65.4493 66.2803" fill="none" xmlns="http://www.w3.org/2000/svg">
<g id="Group">
<path id="Vector" d="M58.0861 7.31047L36.7736 0.519233C34.5648 -0.173078 30.9611 -0.173078 28.7523 0.519233L7.44 7.31047C3.3325 8.62915 0 12.7171 0 16.4424V43.1456C0 45.816 2.05375 49.3435 4.5725 50.9259L25.8848 64.4754C29.6436 66.882 35.8048 66.882 39.5636 64.4754L60.8761 50.9259C63.3948 49.3105 65.4489 45.816 65.4489 43.1456V16.4424C65.4877 12.7171 62.1548 8.62915 58.0861 7.31047ZM46.2286 25.7721L29.5661 39.9478C28.9848 40.4423 28.2486 40.6731 27.5123 40.6731C26.7761 40.6731 26.0398 40.4423 25.4586 39.9478L19.2588 34.6071C18.135 33.6511 18.135 32.0687 19.2588 31.1126C20.3825 30.1566 22.2425 30.1566 23.3663 31.1126L27.5511 34.6731L42.1598 22.2446C43.2836 21.2885 45.1436 21.2885 46.2673 22.2446C47.3911 23.2006 47.3911 24.816 46.2286 25.7721Z" fill="var(--fill-0, white)"/>
</g>
</svg>
