<?xml version="1.0" encoding="UTF-8"?>
<svg id="Camada_1" xmlns="http://www.w3.org/2000/svg" version="1.1" xmlns:xlink="http://www.w3.org/1999/xlink" viewBox="0 0 331 316.05">
  <!-- Generator: Adobe Illustrator 30.3.0, SVG Export Plug-In . SVG Version: 2.1.3 Build 182)  -->
  <defs>
    <style>
      .st0 {
        fill: #4d4948;
      }

      .st1 {
        fill: #fff;
      }

      .st2 {
        fill: none;
      }

      .st3 {
        fill: #ececec;
      }

      .st4 {
        clip-path: url(#clippath);
      }
    </style>
    <clipPath id="clippath">
      <rect class="st2" width="331" height="316.05"/>
    </clipPath>
  </defs>
  <g class="st4">
    <path class="st0" d="M279.83,13.76H52.09c-23.41,0-42.38,18.97-42.38,42.38v205.37c0,23.41,18.97,42.38,42.38,42.38h227.74c23.4,0,42.38-18.97,42.38-42.38V56.13c0-23.4-18.97-42.38-42.38-42.38"/>
    <path class="st3" d="M279.37,307.8H52.55c-25.78,0-46.76-20.98-46.76-46.76V56.59C5.79,30.81,26.77,9.83,52.55,9.83h226.82c25.78,0,46.76,20.98,46.76,46.76v204.45c0,25.78-20.98,46.76-46.76,46.76M52.55,17.67c-21.46,0-38.92,17.46-38.92,38.92v204.45c0,21.46,17.46,38.92,38.92,38.92h226.82c21.46,0,38.92-17.46,38.92-38.92V56.59c0-21.46-17.46-38.92-38.92-38.92H52.55Z"/>
    <path class="st1" d="M48.26,246.3c3.3,1.77,8.38,3.55,13.63,3.59,5.66.04,8.66-2.36,8.68-6.02.02-3.49-2.55-5.51-9.08-7.97-9.02-3.31-14.89-8.51-14.83-16.67.06-9.57,7.87-16.85,20.71-16.76,6.14.04,10.65,1.4,13.88,2.92l-2.82,10.22c-2.17-1.1-6.04-2.7-11.37-2.74-5.33-.03-7.93,2.44-7.95,5.36-.03,3.58,3.03,5.18,10.04,7.98,9.59,3.73,14.08,8.92,14.02,16.83-.06,9.41-7.15,17.35-22.09,17.25-6.22-.04-12.35-1.75-15.4-3.52l2.58-10.47Z"/>
    <path class="st1" d="M61.37,262.01c-.1,0-.2,0-.3,0-6.8-.04-13.19-1.97-16.26-3.75l-1.12-.65,3.42-13.88,1.96,1.05c1.46.78,6.69,3.34,12.83,3.38,2.61.01,6.92-.52,6.95-4.31.01-2.17-1.25-3.82-7.96-6.34-10.63-3.9-16-10.06-15.95-18.29.07-10.9,9.2-18.47,22.22-18.47.07,0,.15,0,.22,0,5.43.04,10.34,1.07,14.6,3.09l1.31.62-3.76,13.65-1.88-.95c-3.31-1.67-6.88-2.53-10.61-2.56-3.74-.04-6.2,1.37-6.22,3.65-.01,2.24,1.74,3.49,8.96,6.36,10.36,4.03,15.16,9.89,15.11,18.44-.06,8.77-6.27,18.96-23.53,18.96M47.68,255.86c3.06,1.4,8.24,2.67,13.42,2.71h.26c12.34,0,20.04-5.94,20.1-15.54.05-7.03-3.94-11.72-12.93-15.21-6.93-2.76-11.18-4.7-11.14-9.6.02-3.53,2.99-7.07,9.57-7.07.04,0,.08,0,.12,0,3.56.02,7,.71,10.24,2.05l1.88-6.83c-3.5-1.42-7.47-2.15-11.83-2.18h-.21c-11.18,0-18.71,6.03-18.77,15.05-.04,6.72,4.44,11.64,13.7,15.04,6.49,2.44,10.24,4.79,10.2,9.6-.03,3.75-2.74,7.73-10.27,7.73-.05,0-.1,0-.15,0-5.18-.03-9.69-1.59-12.45-2.83l-1.74,7.08Z"/>
    <polygon class="st1" points="101.98 214.27 87.36 214.18 87.43 203.52 129.28 203.8 129.2 214.46 114.34 214.36 114.03 259.81 101.67 259.73 101.98 214.27"/>
    <path class="st1" d="M115.74,261.55l-15.81-.11.31-45.46-14.62-.1.1-14.1,45.29.3-.1,14.1-14.86-.1-.31,45.46ZM103.4,258.02l8.91.06.31-45.46,14.86.1.05-7.21-38.4-.26-.05,7.21,14.62.1-.31,45.46Z"/>
    <path class="st1" d="M183.13,231.63c-.12,18.4-11.03,29.48-26.94,29.38-16.16-.11-25.52-12.74-25.41-28.73.11-16.82,10.62-29.32,26.7-29.21,16.72.11,25.76,13.08,25.66,28.56M143.78,232.12c-.07,10.99,4.88,18.77,13.12,18.82,8.32.06,13.14-8.07,13.21-18.98.07-10.07-4.55-18.76-13.04-18.82-8.32-.06-13.22,8.07-13.3,18.98"/>
    <path class="st1" d="M156.41,262.74c-.08,0-.16,0-.24,0-16.35-.11-27.25-12.35-27.13-30.46.12-18.24,11.72-30.92,28.22-30.92.07,0,.14,0,.22,0,8.43.06,15.5,3.21,20.45,9.13,4.52,5.41,6.98,12.92,6.92,21.16-.13,18.91-11.28,31.09-28.44,31.09M157.27,204.8c-14.49,0-24.67,11.28-24.78,27.5-.11,16.05,9.42,26.89,23.71,26.99h.22c15.3,0,24.87-10.58,24.99-27.67.05-7.42-2.12-14.15-6.12-18.93-4.28-5.12-10.44-7.85-17.83-7.9h-.19ZM156.99,252.67s-.07,0-.1,0c-4.58-.03-8.42-2.12-11.09-6.06-2.49-3.66-3.78-8.67-3.74-14.49.08-12.39,6.08-20.69,14.94-20.69.03,0,.06,0,.09,0,4.62.03,8.48,2.26,11.16,6.45,2.35,3.66,3.62,8.67,3.58,14.11-.04,5.83-1.35,10.86-3.8,14.54-2.68,4.02-6.49,6.15-11.05,6.15M145.5,232.13c-.03,5.12,1.05,9.45,3.14,12.53,2.01,2.96,4.87,4.53,8.27,4.56,3.48.14,6.2-1.53,8.25-4.61,2.05-3.08,3.19-7.57,3.23-12.66.03-4.78-1.05-9.12-3.04-12.22-1.41-2.2-4-4.83-8.29-4.86h-.07c-6.91,0-11.42,6.77-11.49,17.27"/>
    <path class="st1" d="M191.17,260.33l.38-56.11,14.38.1,11.17,20.64c3.19,5.93,6.38,12.95,8.75,19.29h.24c-.76-7.42-.95-14.99-.89-23.4l.11-16.4,11.31.08-.38,56.11-12.92-.09-11.49-21.72c-3.19-6.02-6.7-13.28-9.32-19.88l-.24.08c.27,7.41.38,15.32.32,24.48l-.12,16.9-11.31-.07Z"/>
    <path class="st1" d="M237.95,262.36l-15.68-.1-11.97-22.63c-1.43-2.7-3.74-7.19-6.08-12.32.1,5.09.13,10.45.09,16.21l-.12,18.62-14.75-.1.41-59.56,17.12.11,11.65,21.54c1.73,3.22,3.46,6.76,5.07,10.33-.17-4.07-.23-8.52-.2-13.64l.13-18.12,14.75.1-.41,59.56ZM224.36,258.83l10.17.07.36-52.67-7.87-.05-.1,14.68c-.06,9.45.21,16.61.88,23.22l.19,1.91-3.1-.02-.66-1.11c-2.35-6.27-5.51-13.23-8.66-19.08l-10.68-19.74-11.63-.08-.36,52.67,7.86.05.1-15.18c.06-8.93-.04-16.92-.32-24.4l-.05-1.28,2.77-.93.85,1.44c3.16,7.96,7.14,15.76,9.24,19.71l11.01,20.81Z"/>
    <polygon class="st1" points="279.8 237.19 259.76 237.05 259.67 250.38 282.05 250.53 281.98 260.93 247.24 260.7 247.62 204.59 281.23 204.81 281.16 215.22 259.91 215.07 259.83 226.73 279.87 226.87 279.8 237.19"/>
    <path class="st1" d="M283.69,262.67l-38.18-.26.4-59.56,37.05.25-.09,13.85-21.25-.14-.05,8.21,20.04.14-.09,13.77-20.04-.13-.07,9.88,22.38.15-.09,13.85ZM248.97,258.99l31.29.21.05-6.96-22.38-.15.12-16.77,20.03.14.05-6.88-20.04-.14.1-15.1,21.25.14.05-6.96-30.16-.2-.36,52.67Z"/>
    <path class="st1" d="M198.6,135.19c4.21-13.75,8.44-26.55,12.67-38.4,4.23-11.84,8.19-19.52,9.88-24,.15-.42.3-.77.46-1.05.32-1.41.1-2.44-.66-3.1-.76-.66-1.84-1.22-3.24-1.69-1.4-.46-2.6-.71-3.59-.74-.99-.03-1.71.59-2.18,1.85-3.06,7.98-7.99,18.57-12.79,32.73-4.79,14.17-9.09,28.41-12.9,42.74-.26.97-.49,1.89-.72,2.83-1.19,1.51-2.75,2.86-4.78,4.02-2.59,1.62-6.23,3.32-9.5,3.79-.57-.02-1.06.04-1.49.17,1.51-3.36,3.49-8.14,4.94-14.32,1.45-6.19,1.76-11.95.92-17.28-.84-5.33-3.87-8.29-9.09-8.86-2.83-.08-5.61.5-7.34,1.72-1.73,1.23-3.11,2.39-4.13,3.49-.88,1.11-1.54,1.73-1.96,1.86-1.56-.04-3.05.27-4.49.93-5.44,7.06-9.06,15.03-10.88,23.9-2.58,10.97-2.63,18.93-.15,23.89,2.48,4.96,6.06,7.15,10.75,6.57,4.4-.58,8.22-2.66,11.43-6.26,3.21-3.59,5.96-7.76,8.21-12.51,1.27.04,2.55,0,3.83-.1,3.7-.6,7.69-2.43,10.57-4.19.65-.39,1.22-.81,1.8-1.23-2.39,10.35-3.59,18.77-3.55,25.18-.09,8.21,2.94,13.75,9.08,16.61.7.3,1.3.32,1.81.05.5-.27.76-.72.78-1.36.02-.64-.46-1.25-1.43-1.85-2.77-2.2-3.22-8.55-1.36-19.05,1.85-10.49,4.89-22.62,9.11-36.37M154.11,167.18c-1.79,3-3.53,4.54-5.23,4.63-1.84-.05-2.9-1.46-3.17-4.23-.28-2.77,0-6.23.83-10.38.82-4.15,2-8.26,3.54-12.32.39,1.29.92,2.51,1.6,3.66,2.16,3.46,4.86,5.87,8.08,7.24-1.97,4.62-3.85,8.42-5.64,11.41M166.62,134.51c-1.04,4.22-2.14,8.08-3.3,11.59-1.16,3.51-1.9,5.75-2.21,6.73-2.76-1.68-4.95-3.57-6.62-5.92-1.73-2.44-1.99-5.58-2.05-8.41.77-2.24,1.19-3.79,1.8-5.19.47-1.4.78-2.38.93-2.95,1.92-2.78,2.62-4.95,2.1-6.52.3-.56.67-1.11,1.11-1.67.88-.96,2.08-1.96,3.59-2.98,1.52-1.02,2.98-1.51,4.4-1.47,1.54.47,2.23,2.33,2.07,5.58-.17,3.25-.77,6.99-1.81,11.2"/>
    <path class="st1" d="M190.73,195.72c-.5,0-1.07-.1-1.71-.38-6.83-3.19-10.22-9.31-10.12-18.22-.04-5.6.87-12.83,2.69-21.5-2.24,1.21-5.8,2.85-9.52,3.46-1.05.09-2.05.14-3.03.14-2.22,4.47-4.91,8.47-8,11.92-3.49,3.89-7.69,6.18-12.49,6.81-3.78.45-9-.47-12.52-7.51-2.68-5.37-2.68-13.57.02-25.05,1.85-9.04,5.62-17.32,11.19-24.56l.26-.33.38-.18c1.52-.71,3.12-1.07,4.77-1.1.14-.14.49-.48,1.06-1.2,1.18-1.28,2.66-2.53,4.49-3.83,1.97-1.39,5.03-2.15,8.39-2.04,6.12.67,9.79,4.23,10.74,10.32.87,5.54.55,11.57-.94,17.94-1.11,4.75-2.51,8.65-3.81,11.77,2.14-.56,4.82-1.73,7.26-3.26,1.71-.98,3.05-2.07,4.12-3.35l.64-2.49c3.79-14.29,8.15-28.7,12.94-42.85,3.25-9.59,6.6-17.67,9.3-24.15,1.32-3.18,2.52-6.05,3.51-8.65.96-2.63,2.78-3,3.84-2.95,1.17.03,2.5.3,4.08.83,1.64.54,2.89,1.21,3.83,2.02.88.76,1.8,2.21,1.2,4.78l-.16.44c-.12.22-.23.48-.35.81-.61,1.63-1.5,3.63-2.59,6.08-1.93,4.35-4.57,10.3-7.29,17.92-4.2,11.74-8.45,24.63-12.65,38.32-4.18,13.65-7.23,25.82-9.06,36.17-2.27,12.82-.51,16.4.74,17.4,1.36.81,2.12,1.94,2.08,3.24-.04,1.26-.64,2.26-1.69,2.83-.4.21-.93.39-1.6.39M186.88,147.9l-1.03,4.46c-2.36,10.23-3.54,18.57-3.5,24.78-.08,7.19,2.3,11.98,7.28,14.66-3.26-2.96-3.79-9.48-1.83-20.53,1.85-10.49,4.93-22.79,9.16-36.58,4.21-13.74,8.48-26.68,12.7-38.47,2.76-7.74,5.43-13.76,7.39-18.16,1.05-2.37,1.91-4.32,2.5-5.87.14-.38.28-.73.43-1.02.09-.46.11-.99-.15-1.21-.58-.51-1.47-.96-2.65-1.35-1.24-.41-2.28-.63-3.1-.65-.33-.06-.41.45-.51.72-1.01,2.64-2.22,5.54-3.55,8.76-2.68,6.44-6.01,14.45-9.21,23.93-4.77,14.08-9.09,28.42-12.87,42.63l-1.04,3.46c-.33.42-.68.82-1.06,1.21l1.06-.76ZM149.7,123.29c-5.1,6.73-8.56,14.42-10.29,22.84-2.48,10.57-2.58,18.21-.3,22.77,2.16,4.33,5.02,6.1,9,5.63,4.01-.53,7.4-2.39,10.36-5.69,3.1-3.46,5.77-7.53,7.94-12.1l.48-1.01h.35s.94-2.09.94-2.09c1.51-3.35,3.42-7.97,4.84-14.01,1.39-5.93,1.69-11.53.89-16.62-.72-4.57-3.13-6.93-7.58-7.42-2.45-.06-4.8.46-6.16,1.42-1.63,1.15-2.93,2.25-3.86,3.25-1.09,1.39-1.91,2.09-2.74,2.34l-.26.08h-.27c-1.17-.01-2.26.16-3.34.6M148.97,173.53c-1.74-.04-4.49-.86-4.98-5.79-.29-2.93,0-6.59.85-10.89.84-4.22,2.06-8.46,3.62-12.59l1.79-4.75.65,2.14c-.12-1.04-.17-2.08-.19-3.12v-.31s.09-.29.09-.29c.26-.77.48-1.45.69-2.07.41-1.26.74-2.28,1.16-3.24.4-1.22.7-2.18.86-2.73l.24-.51c2.08-3.01,2.07-4.43,1.88-5l-.23-.7.35-.65c.34-.64.78-1.29,1.28-1.93,1.04-1.15,2.36-2.25,3.98-3.33,1.81-1.22,3.62-1.78,5.4-1.76l.46.07c2.39.73,3.49,3.19,3.29,7.31-.17,3.35-.8,7.23-1.86,11.53-1.05,4.26-2.18,8.2-3.34,11.72-1.16,3.5-1.89,5.74-2.21,6.71l-.66,2.09-.26-.16-.49,1.16c-2,4.67-3.93,8.58-5.74,11.62-2.12,3.55-4.28,5.34-6.61,5.47M150.27,149.55c-.83,2.65-1.52,5.32-2.05,7.98-.79,3.97-1.06,7.29-.8,9.88.26,2.65,1.13,2.67,1.51,2.68.89-.06,2.29-1.44,3.7-3.79,1.54-2.58,3.18-5.84,4.88-9.7-2.83-1.56-5.25-3.92-7.23-7.04M155.7,150.92c.84.86,1.74,1.59,2.69,2.2-.99-.7-1.88-1.43-2.69-2.2M154.16,138.76c.07,2.59.35,5.21,1.72,7.15,1.11,1.57,2.5,2.94,4.28,4.23.38-1.16.89-2.69,1.51-4.59,1.14-3.43,2.24-7.29,3.27-11.46,1.01-4.09,1.6-7.75,1.76-10.88.1-1.96-.17-3.39-.7-3.77-.96.05-2,.44-3.09,1.17-1.39.93-2.49,1.85-3.28,2.71-.18.24-.37.5-.55.79.29,1.93-.48,4.22-2.35,6.99-.18.6-.47,1.52-.88,2.75-.43,1.01-.73,1.94-1.1,3.07-.18.56-.38,1.17-.6,1.84"/>
    <path class="st1" d="M140.48,122.64c.09-.7.04-1.48-.15-2.34-.19-.85-.41-1.57-.68-2.14l-.39-1.29c-.12-.71-.35-1.28-.7-1.72-.34-.44-.8-.52-1.37-.25-3.73,1.59-8.08,2.89-12.07,4.05,6.6-18.07,13.02-32.94,18.63-46.16,5.62-13.22,8.65-20.17,9.09-20.87.16-.56-.31-2.07-1.14-2.73-.83-.66-1.8-1.37-3.03-1.79-1.06-.36-1.94-.26-3-.36-1.06-.1-1.98.44-2.28,1-1.03,1.24-4.55,9.18-10.56,23.8-6.01,14.62-12.85,30.83-19.92,50.16-13.81,2.58-26.92,3.96-38.39,4.19,5.72-16.82,12.02-32.52,17.96-47.14,5.94-14.62,9.59-23.33,10.94-26.13v-.42c.32-.84-.05-1.56-1.1-2.16-1.04-.59-2.34-.99-3.89-1.17-1.56-.18-2.97-.15-4.25.09-1.28.25-2.08.72-2.38,1.42l-.22.21c-1.06,2.24-4.66,10.88-10.83,25.92-6.16,15.04-12.45,31.52-17.92,49.48-8.35-.1-13.5-.44-14.35-.6-.85-.02-1.42.24-1.72.8-.3.56-.46,1.26-.49,2.11-.03.99.02,1.77.15,2.34.12.57.61.94,1.46,1.11l.77.21c.99.17,5.01.57,12.07,1.19-3.73,16.46-4.67,29.67-2.83,39.63.4.86,1.23,1.52,2.49,1.98,1.26.46,2.65.11,4.17-1.05,1.52-1.16,2.03-2.88,1.53-5.16-.78-7.52,1.26-19.15,6.1-34.87,10.89.46,23.56-.23,37.06-2.11-.15.28-.23.56-.24.84l1.07-.18c-.94,3.09-1.81,6.18-2.6,9.27-3.81,14.33-5.69,25.53-5.63,33.61-.1,8.21,2.93,13.74,9.08,16.61.7.3,1.3.32,1.81.05.5-.27.76-.72.78-1.36.02-.64-.46-1.25-1.43-1.85-2.77-2.2-3.23-8.55-1.36-19.05,1.85-10.49,4.89-22.62,9.11-36.37l.95-3.37h.42c.14-.12.22-.26.22-.41,6.13-1.38,12.47-3.19,18.06-5.58.57-.27.9-.75,1-1.46"/>
    <path class="st1" d="M111.96,193.99c-.5,0-1.07-.1-1.71-.38-6.84-3.19-10.22-9.31-10.12-18.22-.06-8.14,1.86-19.6,5.69-34.03.56-2.19,1.18-4.42,1.83-6.67l-.42.07.03-.89c-11.99,1.56-23.61,2.21-33.8,1.87-4.47,14.79-6.37,25.86-5.64,32.92.78,3.52-.76,5.61-2.2,6.71-2.51,1.91-4.55,1.76-5.81,1.29-1.7-.62-2.87-1.59-3.46-2.88l-.13-.41c-1.8-9.75-.99-22.66,2.42-38.4-7.89-.71-9.65-.93-10.26-1.04l-.94-.25c-1.94-.37-2.51-1.66-2.67-2.39-.16-.72-.22-1.62-.19-2.76.03-1.11.26-2.08.69-2.87.37-.68,1.24-1.81,3.29-1.71.89.15,5.4.47,13.03.59,6.03-19.58,12.91-36.95,17.6-48.39,6.26-15.27,9.81-23.78,10.87-26l.37-.51h0c.61-1.04,1.77-1.74,3.45-2.07,1.45-.28,3.06-.32,4.78-.11,1.77.21,3.3.68,4.54,1.38,2.28,1.3,2.18,3.08,1.97,3.93l-.18.9c-1.32,2.71-4.98,11.47-10.89,26.02-5.96,14.67-11.76,29.15-17.12,44.71,10.72-.37,22.63-1.71,34.68-3.92,5.96-16.24,11.82-30.44,17-42.99l2.6-6.31c7.75-18.85,9.86-22.96,10.72-24.11.73-1.18,2.29-1.9,3.87-1.75.3.03.57.04.84.05.74.03,1.58.06,2.55.39,1.45.49,2.56,1.29,3.55,2.07,1.26,1,2.1,3.21,1.73,4.54l-.21.47c-.26.45-1.79,3.75-8.96,20.62l-1.23,2.88c-4.94,11.6-10.49,24.65-16.19,39.99,2.99-.9,5.96-1.89,8.59-3.01,1.24-.57,2.57-.29,3.4.77.52.67.87,1.51,1.04,2.5l.34,1.08c.24.47.5,1.28.71,2.27.23,1.04.29,2.03.17,2.93h0c-.17,1.29-.87,2.28-1.98,2.8-4.93,2.11-10.86,3.96-17.68,5.53-.05.05-.1.11-.16.16l-.23.21-.66,2.35c-4.19,13.67-7.24,25.84-9.07,36.21-2.27,12.82-.51,16.4.74,17.4,1.36.81,2.12,1.94,2.08,3.24-.04,1.26-.64,2.26-1.69,2.83-.39.21-.93.39-1.59.39M112.54,130.38l-.81,2.66c-.94,3.1-1.81,6.19-2.58,9.2-3.76,14.15-5.63,25.3-5.58,33.17-.08,7.19,2.3,11.99,7.28,14.66-3.26-2.96-3.79-9.47-1.83-20.53,1.86-10.5,4.94-22.81,9.16-36.58l1.3-4.62h.26s0-.03,0-.03l1.3-.29c6.93-1.56,12.9-3.4,17.76-5.48l1.67.12-1.71-.22c.07-.51.03-1.09-.12-1.75-.16-.73-.35-1.33-.56-1.79l-.47-1.51c-.06-.29-.11-.52-.18-.7-3.72,1.54-7.87,2.79-11.83,3.94l-3.26.95,1.17-3.19c6.14-16.82,12.15-30.92,17.44-43.37l1.22-2.88c6.77-15.95,8.47-19.67,8.99-20.7-.08-.17-.31-.7-.53-.88-.69-.55-1.51-1.16-2.51-1.5-.5-.17-.98-.19-1.58-.21-.33-.01-.68-.03-1.03-.06-.36-.04-.6.13-.64.17-.55.71-2.39,4-10.43,23.56l-2.6,6.32c-5.27,12.76-11.24,27.22-17.29,43.79l-.34.92-.96.18c-13.49,2.52-26.87,3.98-38.67,4.22l-2.46.05.79-2.33c5.62-16.53,11.72-31.78,18-47.24,5.8-14.28,9.35-22.76,10.83-25.89l.06-.49c-.05-.02-.15-.09-.3-.18-.84-.48-1.93-.8-3.25-.96-1.37-.16-2.62-.14-3.72.07-.92.18-1.13.43-1.13.43l-.36.53c-1.18,2.56-4.67,10.94-10.66,25.55-4.76,11.62-11.79,29.38-17.87,49.33l-.38,1.24h-1.29c-8.3-.11-13.66-.45-14.66-.65-.04.24-.13.69-.15,1.27-.02.81.01,1.33.06,1.67.04.01.09.02.15.04l.91.25c.47.07,3.05.37,11.76,1.14l1.96.17-.44,1.92c-3.63,16.02-4.59,29.03-2.87,38.67.3.45.93.76,1.44.94.25.09,1,.37,2.54-.8.65-.5,1.34-1.34.89-3.42-.84-8.02,1.18-19.65,6.13-35.74l.39-1.27,1.33.06c10.94.46,23.64-.27,36.75-2.09l3.38-.47-.42.77.56-.1Z"/>
    <path class="st1" d="M280.01,70.99c-.75-.67-1.04-1.37-2.44-1.85-1.39-.62-3.58-1.07-4.53-.81-1.02.27-2.2,2.98-2.77,4.19-5.21,10.96-10.75,27.72-17.51,42.09-1.56,3.33-3.98,9.51-8.21,17.33-4.23,7.82-8.78,14.92-13.65,21.3-4.87,6.38-9,9.29-12.38,8.72-.7-.31-.9-1.42-.6-3.32.29-1.9.84-4.07,1.66-6.52.81-2.44,1.65-4.68,2.52-6.69.86-2.01,1.45-3.37,1.76-4.07,2.16-4.16,4.52-7.99,7.08-11.49,2.56-3.5,4.95-5.77,7.19-6.81,2.24-1.04,3.99.1,5.27,3.41.12.43.36.76.7.99.34.23.8.35,1.37.38.43-.12.83-.46,1.21-1.01.37-.55.58-1.04.59-1.46-.74-2.72-2.24-4.84-4.51-6.35-2.27-1.51-4.89-2.33-7.86-2.46-6.52.15-12.43,4.22-17.73,12.21-5.3,7.99-8.55,16.14-9.75,24.45-1.2,8.31,1.07,13.15,6.82,14.52,3.94.45,8.45-1.34,13.51-5.38,5.06-4.04,10.21-9.48,15.46-16.34-2.01,7.28-3.45,13.74-4.33,19.37-.88,5.63-1.31,10.07-1.31,13.33-.21,8.2,2.74,13.78,8.85,16.74.69.31,1.29.34,1.8.08.51-.26.77-.71.8-1.35.03-.64-.44-1.26-1.41-1.87-2.74-2.24-2.61-9.49.39-23.38.17-.7,1.22-5.68,2.91-11.7,1.75-6.22,4.51-16.61,9.67-31.59,7.3-21.17,14.57-38.23,19.82-51.75.48-1.25.34-2.22-.41-2.89"/>
    <path class="st1" d="M247.48,197.42c-.51,0-1.1-.11-1.75-.41-6.79-3.28-10.09-9.45-9.87-18.35,0-3.28.44-7.85,1.33-13.55.57-3.62,1.37-7.6,2.4-11.91-3.62,4.16-7.22,7.68-10.75,10.49-5.41,4.32-10.38,6.24-14.78,5.74-4.84-1.14-10.01-4.9-8.33-16.48,1.24-8.52,4.61-16.98,10.02-25.15,5.6-8.45,12.04-12.82,19.13-12.98,3.38.14,6.32,1.06,8.86,2.75,1.68,1.12,3,2.53,3.95,4.21.78-1.71,1.46-3.25,2.05-4.6.57-1.3,1.05-2.41,1.48-3.31,3.54-7.51,6.69-15.58,9.75-23.39,2.71-6.93,5.27-13.47,7.76-18.71l.17-.36c1.14-2.44,2.14-4.34,3.72-4.76,1.58-.42,4.27.27,5.68.9,1.28.44,1.96,1.17,2.45,1.71.13.14.26.29.42.43h0c.75.67,1.86,2.19.87,4.79-1.44,3.72-3.03,7.69-4.74,11.94-4.58,11.45-9.78,24.43-15.07,39.76-4.55,13.2-7.23,22.82-9,29.18l-.65,2.32c-1.41,5.01-2.37,9.33-2.74,10.96l-.15.68c-3.4,15.76-2.4,20.47-.97,21.65,1.35.83,2.09,1.97,2.04,3.27-.05,1.26-.67,2.25-1.73,2.8-.39.2-.91.37-1.55.37M247.24,137.92l-2.36,8.55c-1.98,7.17-3.42,13.62-4.29,19.17-.86,5.52-1.29,9.91-1.29,13.06-.18,7.2,2.13,12.03,7.08,14.77-3.24-3.08-3.19-10.35-.05-24.92l.15-.67c.37-1.65,1.35-6.04,2.78-11.14l.65-2.31c1.78-6.4,4.47-16.07,9.06-29.38,5.32-15.41,10.53-28.43,15.13-39.92,1.7-4.24,3.28-8.2,4.72-11.9.29-.76.12-.92.05-.98-.25-.22-.46-.44-.66-.66-.39-.42-.58-.63-1.19-.84-1.43-.63-3.11-.87-3.53-.78-.25.28-1.18,2.25-1.48,2.89l-.18.38c-2.44,5.13-4.98,11.62-7.67,18.49-3.07,7.85-6.25,15.98-9.84,23.6-.41.88-.89,1.96-1.44,3.23-1.55,3.55-3.68,8.4-6.81,14.19-4.25,7.86-8.89,15.11-13.8,21.53-5.35,6.99-9.92,10.07-14.03,9.37l-.42-.13c-2.24-1.01-1.76-4.13-1.6-5.15.3-1.99.88-4.27,1.72-6.8.84-2.51,1.7-4.81,2.57-6.83.87-2.03,1.46-3.4,1.78-4.1,2.24-4.31,4.66-8.25,7.25-11.8,2.76-3.78,5.33-6.18,7.86-7.36,1.69-.79,3.04-.56,3.88-.22,1.57.63,2.78,2.12,3.73,4.57.02.07.05.13.12.17.04-.04.08-.1.13-.18.13-.19.2-.32.24-.42-.66-2.14-1.87-3.77-3.69-4.99-2.03-1.35-4.31-2.06-6.98-2.17-5.78.14-11.28,3.99-16.22,11.44-5.13,7.74-8.32,15.73-9.48,23.74-1.42,9.77,2.47,11.87,5.52,12.6,3.26.37,7.37-1.32,12.03-5.05,4.94-3.94,10.04-9.34,15.17-16.04l5.39-7.05ZM239.66,124.41c-.18,0-.44.05-.8.21-1.96.91-4.16,3.02-6.53,6.26-2.49,3.41-4.82,7.2-6.94,11.27-.27.61-.85,1.95-1.71,3.95-.83,1.94-1.66,4.14-2.47,6.56-.78,2.34-1.31,4.43-1.59,6.23-.1.68-.12,1.13-.11,1.4,1.95-.08,5.13-1.72,10.01-8.11,4.8-6.28,9.34-13.37,13.51-21.08.33-.61.65-1.22.96-1.81-.31-.11-.59-.24-.84-.41-.69-.45-1.18-1.13-1.41-1.96-.73-1.86-1.47-2.35-1.75-2.46-.06-.02-.17-.07-.34-.07"/>
  </g>
</svg>