<svg preserveAspectRatio="none" width="100%" height="100%" overflow="visible" style="display: block;" viewBox="0 0 1440 333.216" fill="none" xmlns="http://www.w3.org/2000/svg">
<g id="Group 249">
<path id="Vector" fill-rule="evenodd" clip-rule="evenodd" d="M0 140.657V328.2C27.431 329.788 55.8779 331.009 85.8488 331.863C252.34 336.137 449.055 330.764 678.282 308.909C980.277 280.216 1234.14 256.04 1440 236.504V128.081L0 140.657Z" fill="var(--fill-0, #FFED00)"/>
<path id="Vector_2" fill-rule="evenodd" clip-rule="evenodd" d="M0 141.878V316.601C197.478 332.107 394.828 325.636 634.85 303.78C976.721 272.523 1242.01 247.859 1440 229.3V135.407L0 141.878Z" fill="var(--fill-0, #FFCC00)"/>
<path id="Vector_3" fill-rule="evenodd" clip-rule="evenodd" d="M0 32.8445V308.665C209.796 319.409 463.406 313.427 764.893 276.797C984.087 250.302 1213.31 229.179 1440 212.451V33.0887C1440 14.896 1424.63 0 1405.58 0H34.0347C15.2394 0.122098 0 14.7739 0 32.8445Z" fill="var(--fill-0, #7A3F91)"/>
</g>
</svg>
