<svg width="391.29" height="180.059" viewBox="0 0 391.29 180.059" fill="none" xmlns="http://www.w3.org/2000/svg">
<g id="Group">
<path id="Vector" d="M297.401 77.5255H274.323C273.334 65.645 272.282 53.7401 271.246 41.8475C270.225 29.967 269.158 18.0377 268.137 6.145H289.206C290.572 18.0499 291.922 29.967 293.303 41.8475C294.685 53.7401 296.067 65.6328 297.401 77.5255ZM188.808 26.5447C188.651 35.0516 188.463 43.5586 188.321 52.0534C188.164 60.5359 187.976 69.0429 187.835 77.5255H164.757C165.243 67.344 165.761 57.138 166.232 46.9565C166.703 36.775 167.174 26.5569 167.677 16.3509C171.397 12.953 175.071 9.55513 178.666 6.145H210.285C212.059 7.84395 213.817 9.5429 215.623 11.2419C217.334 9.5429 219.077 7.84395 220.819 6.145H252.391C256.143 9.54291 259.895 12.9408 263.726 16.3509C264.558 26.5569 265.374 36.775 266.191 46.9565C267.007 57.138 267.823 67.344 268.624 77.5255H245.546C245.09 69.0429 244.651 60.5359 244.211 52.0534C243.772 43.5709 243.332 35.0516 242.924 26.5447H226.706C226.973 35.0516 227.193 43.5709 227.46 52.0534C227.727 60.5359 227.947 69.0429 228.214 77.5255H205.135C205.104 69.0429 205.104 60.5359 205.104 52.0534C205.104 43.5709 205.073 35.0516 205.073 26.5447H188.855H188.808ZM137.549 57.138C138.272 48.6555 138.947 40.1363 139.669 31.6537C140.391 23.1712 141.113 14.652 141.788 6.145H162.826C162.292 16.3509 161.711 26.5691 161.161 36.7506C160.612 46.9321 160.062 57.138 159.45 67.3195C155.462 70.7174 151.412 74.1153 147.393 77.5255H106.983C103.529 74.1276 100.153 70.7297 96.7937 67.3195C98.1595 57.138 99.5097 46.9321 100.844 36.7506C102.194 26.5691 103.576 16.3509 104.942 6.145H125.979C125.1 14.652 124.221 23.159 123.326 31.6537C122.431 40.1363 121.536 48.6555 120.673 57.138H137.534H137.549Z" stroke="var(--stroke-0, #1D1D1B)" stroke-width="12.29" stroke-linecap="round" stroke-linejoin="round"/>
<path id="Vector_2" d="M297.401 77.5255H274.323C273.334 65.645 272.282 53.7401 271.246 41.8475C270.225 29.967 269.158 18.0377 268.137 6.145H289.206C290.572 18.0499 291.922 29.967 293.303 41.8475C294.685 53.7401 296.067 65.6328 297.401 77.5255ZM188.808 26.5447C188.651 35.0516 188.463 43.5586 188.321 52.0534C188.164 60.5359 187.976 69.0429 187.835 77.5255H164.757C165.243 67.344 165.761 57.138 166.232 46.9565C166.703 36.775 167.174 26.5569 167.677 16.3509C171.397 12.953 175.071 9.55513 178.666 6.145H210.285C212.059 7.84395 213.817 9.5429 215.623 11.2419C217.334 9.5429 219.077 7.84395 220.819 6.145H252.391C256.143 9.54291 259.895 12.9408 263.726 16.3509C264.558 26.5569 265.374 36.775 266.191 46.9565C267.007 57.138 267.823 67.344 268.624 77.5255H245.546C245.09 69.0429 244.651 60.5359 244.211 52.0534C243.772 43.5709 243.332 35.0516 242.924 26.5447H226.706C226.973 35.0516 227.193 43.5709 227.46 52.0534C227.727 60.5359 227.947 69.0429 228.214 77.5255H205.135C205.104 69.0429 205.104 60.5359 205.104 52.0534C205.104 43.5709 205.073 35.0516 205.073 26.5447H188.855H188.808ZM137.549 57.138C138.272 48.6555 138.947 40.1363 139.669 31.6537C140.391 23.1712 141.113 14.652 141.788 6.145H162.826C162.292 16.3509 161.711 26.5691 161.161 36.7506C160.612 46.9321 160.062 57.138 159.45 67.3195C155.462 70.7174 151.412 74.1153 147.393 77.5255H106.983C103.529 74.1276 100.153 70.7297 96.7937 67.3195C98.1595 57.138 99.5097 46.9321 100.844 36.7506C102.194 26.5691 103.576 16.3509 104.942 6.145H125.979C125.1 14.652 124.221 23.159 123.326 31.6537C122.431 40.1363 121.536 48.6555 120.673 57.138H137.534H137.549Z" fill="var(--fill-0, #1D1D1B)"/>
<path id="Vector_3" d="M334.97 139.556C336.414 149.089 337.89 158.599 339.287 168.12C330.652 167.106 322.002 166.079 313.399 165.04C311.923 153.159 310.447 141.255 309.003 129.362C307.559 117.481 306.114 105.552 304.686 93.6594H328.109C329.365 102.166 330.652 110.661 331.893 119.144H350.01C348.613 110.661 347.121 102.154 345.693 93.6594H369.116C371.157 103.865 373.167 114.059 375.223 124.253C373.481 125.952 371.769 127.651 370.105 129.35C372.46 131.049 374.846 132.748 377.264 134.447C379.917 147.61 382.539 160.774 385.145 173.914C376.385 172.801 367.64 171.689 358.88 170.577C357.106 160.249 355.316 149.896 353.542 139.543H334.97V139.556ZM287.134 93.6716C291.373 97.0696 295.658 100.467 300.023 103.878C300.588 108.974 301.153 114.084 301.734 119.168C293.884 120.867 285.972 122.566 278.044 124.265C277.745 120.867 277.479 117.469 277.165 114.059H259.126C259.801 124.265 260.492 134.459 261.135 144.665H279.818C279.519 141.267 279.205 137.869 278.939 134.459C287.275 136.158 295.658 137.857 304.105 139.556C304.67 144.652 305.282 149.762 305.847 154.846C302.064 158.244 298.186 161.642 294.324 165.052H249.753C245.357 161.654 240.993 158.256 236.644 154.846C236.346 146.364 236.001 137.857 235.702 129.374C235.404 120.892 235.09 112.372 234.792 103.865C238.575 100.467 242.375 97.0696 246.127 93.6594H287.134V93.6716ZM205.183 144.665C205.183 134.459 205.183 124.265 205.151 114.059H187.144C186.924 124.265 186.767 134.459 186.532 144.665H205.183ZM216.847 93.6716C220.835 97.0696 224.807 100.467 228.857 103.878C229.077 112.385 229.375 120.904 229.611 129.386C229.862 137.869 230.098 146.376 230.365 154.858C226.267 158.256 222.107 161.654 217.931 165.064H173.391C169.294 161.666 165.196 158.269 161.146 154.858C161.57 146.376 161.946 137.869 162.355 129.386C162.778 120.904 163.187 112.385 163.611 103.878C167.708 100.48 171.759 97.0818 175.809 93.6716H216.832H216.847ZM84.3441 165.052C85.9297 153.172 87.5154 141.267 89.0853 129.374C90.6553 117.481 92.2723 105.564 93.8579 93.6716H117.282C116.371 102.179 115.476 110.686 114.597 119.18C113.702 127.663 112.823 136.182 111.912 144.665H130.595C131.018 139.568 131.474 134.459 131.882 129.362C139.92 131.061 147.911 132.76 156.059 134.459C155.447 144.665 154.929 154.858 154.348 165.052H84.3441ZM6.17663 173.694C9.09672 160.371 11.9697 147.011 14.8898 133.689C17.8099 120.366 20.73 107.007 23.603 93.6594H76.2903C79.697 97.0573 83.1195 100.455 86.5577 103.865C85.6157 110.661 84.6581 117.469 83.669 124.253C81.4397 125.952 79.1162 127.651 76.8398 129.35C78.6295 131.049 80.4036 132.748 82.2561 134.447C81.3141 141.242 80.325 148.05 79.3831 154.834C74.7203 158.232 69.9791 161.63 65.2379 165.04C45.645 167.937 25.9265 170.809 6.14522 173.694H6.17663ZM38.3919 138.944C37.5912 143.112 36.8376 147.28 36.037 151.436C42.4109 150.617 48.8163 149.798 55.253 148.967C55.7868 145.63 56.3834 142.293 56.9643 138.944H38.3919ZM43.4785 112.213C42.9447 115.159 42.3795 118.08 41.8143 121.014H59.9786C60.4653 118.093 60.9991 115.159 61.5014 112.213H43.4942H43.4785Z" stroke="var(--stroke-0, #1D1D1B)" stroke-width="12.29" stroke-linecap="round" stroke-linejoin="round"/>
<path id="Vector_4" d="M334.97 139.556C336.414 149.089 337.89 158.599 339.287 168.12C330.652 167.106 322.002 166.079 313.399 165.04C311.923 153.159 310.447 141.255 309.003 129.362C307.559 117.481 306.114 105.552 304.686 93.6594H328.109C329.365 102.166 330.652 110.661 331.893 119.144H350.01C348.613 110.661 347.121 102.154 345.693 93.6594H369.116C371.157 103.865 373.167 114.059 375.223 124.253C373.481 125.952 371.769 127.651 370.105 129.35C372.46 131.049 374.846 132.748 377.264 134.447C379.917 147.61 382.539 160.774 385.145 173.914C376.385 172.801 367.64 171.689 358.88 170.577C357.106 160.249 355.316 149.896 353.542 139.543H334.97V139.556ZM287.134 93.6716C291.373 97.0696 295.658 100.467 300.023 103.878C300.588 108.974 301.153 114.084 301.734 119.168C293.884 120.867 285.972 122.566 278.044 124.265C277.745 120.867 277.479 117.469 277.165 114.059H259.126C259.801 124.265 260.492 134.459 261.135 144.665H279.818C279.519 141.267 279.205 137.869 278.939 134.459C287.275 136.158 295.658 137.857 304.105 139.556C304.67 144.652 305.282 149.762 305.847 154.846C302.064 158.244 298.186 161.642 294.324 165.052H249.753C245.357 161.654 240.993 158.256 236.644 154.846C236.346 146.364 236.001 137.857 235.702 129.374C235.404 120.892 235.09 112.372 234.792 103.865C238.575 100.467 242.375 97.0696 246.127 93.6594H287.134V93.6716ZM205.183 144.665C205.183 134.459 205.183 124.265 205.151 114.059H187.144C186.924 124.265 186.767 134.459 186.532 144.665H205.183ZM216.847 93.6716C220.835 97.0696 224.807 100.467 228.857 103.878C229.077 112.385 229.375 120.904 229.611 129.386C229.862 137.869 230.098 146.376 230.365 154.858C226.267 158.256 222.107 161.654 217.931 165.064H173.391C169.294 161.666 165.196 158.269 161.146 154.858C161.57 146.376 161.946 137.869 162.355 129.386C162.778 120.904 163.187 112.385 163.611 103.878C167.708 100.48 171.759 97.0818 175.809 93.6716H216.832H216.847ZM84.3441 165.052C85.9297 153.172 87.5154 141.267 89.0853 129.374C90.6553 117.481 92.2723 105.564 93.8579 93.6716H117.282C116.371 102.179 115.476 110.686 114.597 119.18C113.702 127.663 112.823 136.182 111.912 144.665H130.595C131.018 139.568 131.474 134.459 131.882 129.362C139.92 131.061 147.911 132.76 156.059 134.459C155.447 144.665 154.929 154.858 154.348 165.052H84.3441ZM6.17663 173.694C9.09672 160.371 11.9697 147.011 14.8898 133.689C17.8099 120.366 20.73 107.007 23.603 93.6594H76.2903C79.697 97.0573 83.1195 100.455 86.5577 103.865C85.6157 110.661 84.6581 117.469 83.669 124.253C81.4397 125.952 79.1162 127.651 76.8398 129.35C78.6295 131.049 80.4036 132.748 82.2561 134.447C81.3141 141.242 80.325 148.05 79.3831 154.834C74.7203 158.232 69.9791 161.63 65.2379 165.04C45.645 167.937 25.9265 170.809 6.14522 173.694M38.3919 138.944C37.5912 143.112 36.8376 147.28 36.037 151.436C42.4109 150.617 48.8163 149.798 55.253 148.967C55.7868 145.63 56.3834 142.293 56.9643 138.944H38.3919ZM43.4785 112.213C42.9447 115.159 42.3795 118.08 41.8143 121.014H59.9786C60.4653 118.093 60.9991 115.159 61.5014 112.213H43.4942H43.4785Z" fill="var(--fill-0, #1D1D1B)"/>
<path id="Vector_5" d="M296.174 75.1787H273.363C272.358 63.5061 271.354 51.8456 270.333 40.173C269.297 28.5125 268.339 16.8399 267.303 5.16721H288.136C289.487 16.8399 290.79 28.5003 292.14 40.173C293.49 51.8456 294.84 63.5061 296.19 75.1787H296.174ZM188.885 25.188C188.743 33.5238 188.539 41.8841 188.398 50.2078C188.257 58.5314 188.068 66.8673 187.911 75.191H165.1C165.587 65.205 166.073 55.1824 166.56 45.1965C167.047 35.2106 167.502 25.188 167.989 15.1898C171.662 11.8652 175.289 8.52845 178.853 5.19166H210.094C211.853 6.87839 213.58 8.54068 215.385 10.203C217.065 8.54068 218.792 6.87839 220.519 5.19166H251.729C255.434 8.54068 259.187 11.8652 262.939 15.1898C263.724 25.188 264.556 35.2106 265.341 45.1965C266.126 55.1824 266.911 65.205 267.696 75.191H244.916C244.461 66.8673 244.068 58.5314 243.644 50.2078C243.22 41.8841 242.781 33.5361 242.325 25.188H226.328C226.547 33.5238 226.83 41.8841 227.081 50.2078C227.317 58.5314 227.568 66.8673 227.835 75.191H205.024C205.024 66.8673 204.992 58.5314 204.992 50.2078C204.992 41.8841 204.961 33.5361 204.961 25.188H188.932H188.885ZM138.27 55.1824C138.945 46.8588 139.635 38.5229 140.326 30.1993C141.017 21.8756 141.755 13.5275 142.43 5.17944H163.216C162.698 15.1776 162.148 25.2002 161.599 35.1861C161.049 45.1721 160.469 55.1946 159.919 65.1806C155.979 68.5296 152.007 71.8542 147.972 75.1787H108.111C104.704 71.8542 101.36 68.5174 98.0319 65.1806C99.335 55.1946 100.717 45.1721 102.035 35.1861C103.37 25.2002 104.657 15.1776 106.007 5.17944H126.793C125.93 13.5153 125.082 21.8756 124.203 30.1993C123.324 38.5229 122.445 46.8588 121.581 55.1824H138.254H138.27Z" stroke="var(--stroke-0, #3C3C3B)" stroke-width="9.29" stroke-linecap="round" stroke-linejoin="round"/>
<path id="Vector_6" d="M296.174 75.1787H273.363C272.358 63.5183 271.354 51.8456 270.333 40.173C269.297 28.5125 268.339 16.8399 267.303 5.16721H288.136C289.487 16.8399 290.79 28.5003 292.14 40.173C293.49 51.8456 294.84 63.5061 296.19 75.1787M188.885 25.188C188.728 33.5238 188.555 41.8841 188.398 50.2078C188.241 58.5314 188.068 66.8673 187.911 75.191H165.1C165.587 65.205 166.073 55.1824 166.56 45.1965C167.047 35.2106 167.502 25.188 167.989 15.1898C171.662 11.8652 175.289 8.52845 178.853 5.19166H210.094C211.853 6.87839 213.58 8.54068 215.385 10.203C217.065 8.54068 218.792 6.87839 220.519 5.19166H251.729C255.434 8.54068 259.187 11.8652 262.939 15.1898C263.724 25.188 264.556 35.2106 265.341 45.1965C266.126 55.1824 266.911 65.205 267.696 75.191H244.916C244.461 66.8673 244.068 58.5314 243.644 50.2078C243.22 41.8841 242.781 33.5361 242.325 25.188H226.328C226.547 33.5238 226.83 41.8841 227.081 50.2078C227.317 58.5314 227.568 66.8673 227.835 75.191H205.024C205.024 66.8673 204.992 58.5314 204.992 50.2078C204.992 41.8841 204.961 33.5361 204.961 25.188H188.932H188.885ZM138.27 55.1824C138.945 46.8588 139.635 38.5229 140.326 30.1993C141.017 21.8756 141.755 13.5275 142.43 5.17944H163.216C162.698 15.1776 162.148 25.2002 161.599 35.1861C161.049 45.1721 160.469 55.1946 159.919 65.1806C155.979 68.5296 152.007 71.8542 147.972 75.1787H108.111C104.704 71.8542 101.376 68.5174 98.0319 65.1806C99.3507 55.1946 100.717 45.1721 102.035 35.1861C103.37 25.2002 104.657 15.1776 106.007 5.17944H126.793C125.93 13.5153 125.082 21.8756 124.203 30.1993C123.324 38.5229 122.445 46.8588 121.581 55.1824H138.254H138.27Z" fill="var(--fill-0, white)"/>
<path id="Vector_7" d="M333.336 132.809C334.765 142.232 336.225 151.632 337.606 161.043C329.066 160.041 320.526 159.026 312.016 158C310.556 146.254 309.096 134.495 307.668 122.737C306.239 110.991 304.826 99.2085 303.397 87.4503H326.554C327.794 95.8473 329.066 104.256 330.306 112.641H348.219C346.838 104.256 345.378 95.8473 343.949 87.4503H367.106C369.131 97.534 371.109 107.618 373.134 117.677C371.407 119.364 369.728 121.038 368.079 122.713C370.403 124.399 372.758 126.074 375.16 127.748C377.781 140.753 380.372 153.771 382.946 166.751C374.296 165.651 365.646 164.551 356.98 163.451C355.221 153.233 353.463 143.015 351.705 132.784H333.352L333.336 132.809ZM286.065 87.4503C290.257 90.8115 294.496 94.1728 298.797 97.534C299.363 102.57 299.928 107.618 300.477 112.641C292.722 114.316 284.888 116.002 277.069 117.677C276.771 114.316 276.504 110.955 276.206 107.593H258.371C259.047 117.677 259.722 127.761 260.35 137.844H278.812C278.514 134.483 278.216 131.122 277.949 127.761C286.191 129.447 294.464 131.122 302.832 132.796C303.397 137.832 303.994 142.88 304.559 147.904C300.807 151.265 296.992 154.626 293.177 157.987H249.124C244.776 154.626 240.474 151.265 236.157 147.904C235.858 139.519 235.513 131.122 235.215 122.725C234.916 114.34 234.618 105.919 234.32 97.5218C238.072 94.1606 241.809 90.7993 245.529 87.4381H286.065V87.4503ZM205.072 137.844C205.072 127.761 205.072 117.677 205.04 107.593H187.253C187.033 117.677 186.876 127.761 186.656 137.844H205.088H205.072ZM216.611 87.4503C220.551 90.8115 224.476 94.1728 228.48 97.534C228.699 105.931 228.982 114.352 229.233 122.737C229.469 131.122 229.72 139.531 229.987 147.916C225.936 151.277 221.823 154.638 217.694 158H173.673C169.623 154.638 165.588 151.277 161.569 147.916C161.977 139.531 162.354 131.122 162.762 122.737C163.17 114.352 163.578 105.931 164.002 97.534C168.053 94.1728 172.056 90.8115 176.059 87.4503H216.595H216.611ZM85.6306 158C87.2005 146.254 88.7548 134.483 90.309 122.737C91.8633 110.991 93.4489 99.2085 95.0345 87.4503H118.191C117.296 95.8473 116.417 104.269 115.538 112.653C114.659 121.038 113.78 129.46 112.885 137.844H131.347C131.755 132.809 132.211 127.761 132.619 122.725C140.563 124.412 148.46 126.086 156.513 127.761C155.917 137.844 155.383 147.928 154.834 158H85.6463H85.6306ZM8.38936 166.543C11.2781 153.379 14.1197 140.167 17.0084 127.003C19.8971 113.839 22.77 100.626 25.6273 87.4503H77.7024C81.0778 90.8115 84.4531 94.1728 87.8599 97.534C86.9179 104.256 85.9916 110.979 85.0183 117.677C82.8046 119.364 80.5282 121.038 78.2675 122.713C80.0259 124.399 81.7842 126.074 83.621 127.748C82.6791 134.471 81.7057 141.193 80.7794 147.904C76.1795 151.265 71.4854 154.626 66.807 157.987C47.4339 160.848 27.9508 163.695 8.40505 166.531L8.38936 166.543ZM40.2278 132.198C39.4428 136.317 38.6893 140.436 37.9043 144.542C44.1998 143.736 50.5267 142.929 56.9006 142.098C57.4187 138.798 58.0309 135.51 58.5804 132.198H40.2278ZM45.2516 105.772C44.7335 108.681 44.1684 111.578 43.6032 114.462H61.5476C62.0343 111.566 62.5524 108.681 63.0548 105.772H45.2673H45.2516Z" stroke="var(--stroke-0, #3C3C3B)" stroke-width="9.29" stroke-linecap="round" stroke-linejoin="round"/>
<path id="Vector_8" d="M333.336 132.809C334.765 142.232 336.225 151.632 337.606 161.043C329.066 160.041 320.526 159.026 312.016 158C310.556 146.254 309.096 134.495 307.668 122.737C306.239 110.991 304.826 99.2085 303.397 87.4503H326.554C327.794 95.8473 329.066 104.256 330.306 112.641H348.219C346.838 104.256 345.378 95.8473 343.949 87.4503H367.106C369.131 97.534 371.109 107.618 373.134 117.689C371.407 119.376 369.728 121.05 368.079 122.725C370.403 124.399 372.758 126.086 375.16 127.761C377.781 140.766 380.372 153.771 382.946 166.763C374.296 165.663 365.646 164.563 356.98 163.463C355.221 153.245 353.463 143.027 351.705 132.796H333.352L333.336 132.809ZM286.065 87.4503C290.257 90.8115 294.496 94.1728 298.797 97.534C299.363 102.57 299.928 107.618 300.477 112.641C292.722 114.328 284.888 116.002 277.069 117.677C276.771 114.316 276.504 110.955 276.206 107.593H258.371C259.047 117.677 259.722 127.761 260.35 137.844H278.812C278.514 134.483 278.216 131.122 277.949 127.761C286.191 129.435 294.464 131.122 302.817 132.796C303.382 137.832 303.978 142.88 304.543 147.904C300.791 151.265 296.976 154.626 293.161 157.987H249.109C244.76 154.626 240.458 151.265 236.141 147.904C235.843 139.519 235.497 131.11 235.199 122.725C234.901 114.34 234.603 105.919 234.304 97.5218C238.056 94.1606 241.793 90.7993 245.498 87.4381H286.034L286.065 87.4503ZM205.072 137.844C205.072 127.761 205.072 117.677 205.04 107.593H187.253C187.033 117.677 186.876 127.761 186.656 137.844H205.088H205.072ZM216.611 87.4503C220.551 90.8115 224.476 94.1728 228.48 97.534C228.699 105.931 228.982 114.352 229.233 122.737C229.469 131.122 229.72 139.531 229.987 147.916C225.936 151.277 221.823 154.638 217.694 158H173.673C169.623 154.638 165.588 151.277 161.569 147.916C161.977 139.531 162.354 131.122 162.762 122.737C163.17 114.352 163.578 105.931 164.002 97.534C168.053 94.1728 172.056 90.8115 176.059 87.4503H216.595H216.611ZM85.6306 158C87.2005 146.254 88.7548 134.483 90.309 122.737C91.8633 110.991 93.4489 99.2085 95.0345 87.4503H118.191C117.296 95.8473 116.417 104.269 115.538 112.653C114.659 121.038 113.78 129.46 112.885 137.844H131.347C131.755 132.809 132.211 127.761 132.619 122.725C140.563 124.399 148.46 126.086 156.513 127.761C155.917 137.844 155.383 147.928 154.834 158H85.6463H85.6306ZM8.38936 166.543C11.2781 153.379 14.1197 140.167 17.0084 127.003C19.8971 113.839 22.77 100.626 25.6273 87.4503H77.7024C81.0778 90.8115 84.4531 94.1728 87.8599 97.534C86.9179 104.256 85.9916 110.979 85.0183 117.689C82.8046 119.376 80.5282 121.05 78.2675 122.725C80.0259 124.399 81.7842 126.086 83.621 127.761C82.6791 134.483 81.7057 141.206 80.7794 147.916C76.1638 151.277 71.4854 154.638 66.807 158C47.4339 160.86 27.9508 163.708 8.40505 166.543M40.2278 132.198C39.4428 136.317 38.6893 140.436 37.9043 144.542C44.1998 143.736 50.5267 142.929 56.9006 142.098C57.4187 138.798 58.0309 135.51 58.5804 132.198H40.2278ZM45.2516 105.772C44.7335 108.681 44.1684 111.578 43.6032 114.462H61.5476C62.0343 111.566 62.5524 108.681 63.0391 105.772H45.2516Z" fill="var(--fill-0, white)"/>
</g>
</svg>
